<svg xmlns="http://www.w3.org/2000/svg" viewBox="0 0 100 100" fill="none">
  <path d="M50 95C48.3333 95 40.2 90.2 38 89C28 84.5 15.5 77.5 10.5 66.5C5.5 55.5 7.5 41.5 15 30.5C22.5 19.5 35 11.5 48.5 8.5C62 5.5 76.5 8 86 17.5C95.5 27 98.5 42 94.5 56C90.5 70 79 81.5 65 89C62.4 90.4 51.6667 95 50 95Z" fill="#1f2937"/>
  <path d="M50 26.5L55.5 40L69 45.5L55.5 51L50 64.5L44.5 51L31 45.5L44.5 40L50 26.5Z" fill="#f3f4f6"/>
  <path d="M73.5 24L77 31.5L84.5 35L77 38.5L73.5 46L70 38.5L62.5 35L70 31.5L73.5 24Z" fill="#9ca3af"/>
  <path d="M26.5 58L29 63L34 65.5L29 68L26.5 73L24 68L19 65.5L24 63L26.5 58Z" fill="#9ca3af"/>
</svg>